<svg width="160.16" height="27.44" viewBox="0 0 160.16 27.44" xmlns="http://www.w3.org/2000/svg"><g id="svgGroup" stroke-linecap="round" fill-rule="nonzero" font-size="9pt" stroke="#ffffff" stroke-width="0.2mm" fill="#7846d6" style="stroke:#ffffff;stroke-width:0.2mm;fill:#7846d6"><path d="M 0 23.415 L 0 4.9 A 3.845 3.845 0 0 1 0.231 3.548 A 3.441 3.441 0 0 1 1.015 2.328 A 3.406 3.406 0 0 1 3.079 1.332 A 4.726 4.726 0 0 1 3.675 1.295 A 4.781 4.781 0 0 1 4.787 1.417 A 3.2 3.2 0 0 1 6.405 2.328 Q 7.385 3.36 7.385 4.83 L 7.385 11.305 L 13.895 11.305 L 13.895 4.9 A 3.845 3.845 0 0 1 14.126 3.548 A 3.441 3.441 0 0 1 14.91 2.328 A 3.382 3.382 0 0 1 16.767 1.37 A 4.868 4.868 0 0 1 17.64 1.295 A 4.585 4.585 0 0 1 18.778 1.429 A 3.187 3.187 0 0 1 20.335 2.328 Q 21.315 3.36 21.315 4.83 L 21.315 23.415 A 3.586 3.586 0 0 1 21.092 24.701 A 3.22 3.22 0 0 1 20.283 25.9 A 3.536 3.536 0 0 1 17.971 26.873 A 4.643 4.643 0 0 1 17.71 26.88 A 4.703 4.703 0 0 1 16.447 26.719 A 3.579 3.579 0 0 1 14.963 25.9 A 3.205 3.205 0 0 1 13.898 23.561 A 4.138 4.138 0 0 1 13.895 23.415 L 13.895 16.45 L 7.385 16.45 L 7.385 23.415 A 3.586 3.586 0 0 1 7.162 24.701 A 3.22 3.22 0 0 1 6.353 25.9 A 3.529 3.529 0 0 1 4.294 26.846 A 4.802 4.802 0 0 1 3.71 26.88 A 4.337 4.337 0 0 1 2.43 26.699 A 3.508 3.508 0 0 1 1.05 25.9 A 3.229 3.229 0 0 1 0.003 23.555 A 4.211 4.211 0 0 1 0 23.415 Z M 81.795 23.415 L 81.795 4.9 A 3.845 3.845 0 0 1 82.026 3.548 A 3.441 3.441 0 0 1 82.81 2.328 A 3.406 3.406 0 0 1 84.874 1.332 A 4.726 4.726 0 0 1 85.47 1.295 A 4.781 4.781 0 0 1 86.582 1.417 A 3.2 3.2 0 0 1 88.2 2.328 Q 89.18 3.36 89.18 4.83 L 89.18 11.305 L 95.69 11.305 L 95.69 4.9 A 3.845 3.845 0 0 1 95.921 3.548 A 3.441 3.441 0 0 1 96.705 2.328 A 3.382 3.382 0 0 1 98.562 1.37 A 4.868 4.868 0 0 1 99.435 1.295 A 4.585 4.585 0 0 1 100.573 1.429 A 3.187 3.187 0 0 1 102.13 2.328 Q 103.11 3.36 103.11 4.83 L 103.11 23.415 A 3.586 3.586 0 0 1 102.887 24.701 A 3.22 3.22 0 0 1 102.078 25.9 A 3.536 3.536 0 0 1 99.766 26.873 A 4.643 4.643 0 0 1 99.505 26.88 A 4.703 4.703 0 0 1 98.242 26.719 A 3.579 3.579 0 0 1 96.758 25.9 A 3.205 3.205 0 0 1 95.693 23.561 A 4.138 4.138 0 0 1 95.69 23.415 L 95.69 16.45 L 89.18 16.45 L 89.18 23.415 A 3.586 3.586 0 0 1 88.957 24.701 A 3.22 3.22 0 0 1 88.148 25.9 A 3.529 3.529 0 0 1 86.089 26.846 A 4.802 4.802 0 0 1 85.505 26.88 A 4.337 4.337 0 0 1 84.225 26.699 A 3.508 3.508 0 0 1 82.845 25.9 A 3.229 3.229 0 0 1 81.798 23.555 A 4.211 4.211 0 0 1 81.795 23.415 Z M 60.76 23.765 L 60.76 3.5 Q 60.76 2.03 61.653 1.015 A 2.902 2.902 0 0 1 63.28 0.09 A 4.388 4.388 0 0 1 64.19 0 Q 65.8 0 66.623 1.015 Q 67.445 2.03 67.445 3.535 L 67.445 14.14 L 67.55 14.175 Q 67.725 12.705 68.46 11.463 A 5.566 5.566 0 0 1 70.361 9.548 A 6.571 6.571 0 0 1 70.525 9.45 Q 71.818 8.702 73.674 8.681 A 9.503 9.503 0 0 1 73.78 8.68 A 7.596 7.596 0 0 1 75.58 8.882 A 5.313 5.313 0 0 1 77.945 10.115 A 4.724 4.724 0 0 1 79.434 12.928 A 6.803 6.803 0 0 1 79.52 14.035 A 6.982 6.982 0 0 1 79.443 15.106 Q 79.358 15.657 79.177 16.107 A 3.319 3.319 0 0 1 78.838 16.748 Q 78.155 17.745 77 18.13 Q 75.941 18.483 74.677 18.483 A 9.269 9.269 0 0 1 74.445 18.48 L 74.445 19.075 A 12.341 12.341 0 0 1 75.973 19.163 Q 77.632 19.371 78.578 20.071 A 3.194 3.194 0 0 1 78.873 20.318 A 4.106 4.106 0 0 1 80.183 23.303 A 5.336 5.336 0 0 1 80.185 23.45 A 4.664 4.664 0 0 1 80.064 24.547 A 3.058 3.058 0 0 1 79.135 26.145 Q 78.085 27.09 76.615 27.055 A 4.818 4.818 0 0 1 75.356 26.87 A 3.711 3.711 0 0 1 73.955 26.11 Q 72.905 25.2 72.205 23.66 L 70.7 20.475 A 3.906 3.906 0 0 0 70.305 19.817 Q 70.01 19.426 69.642 19.182 A 2.377 2.377 0 0 0 69.528 19.11 A 2.167 2.167 0 0 0 68.993 18.893 Q 68.436 18.743 67.646 18.782 A 7.476 7.476 0 0 0 67.445 18.795 L 67.445 23.765 A 3.44 3.44 0 0 1 67.229 25.003 A 3.114 3.114 0 0 1 66.553 26.058 A 2.955 2.955 0 0 1 64.941 26.911 A 4.313 4.313 0 0 1 64.12 26.985 A 4.131 4.131 0 0 1 63.056 26.855 A 2.973 2.973 0 0 1 61.67 26.058 Q 60.76 25.13 60.76 23.765 Z M 68.18 16.415 A 0.727 0.727 0 0 0 68.281 16.8 Q 68.367 16.941 68.526 17.045 A 1.175 1.175 0 0 0 68.688 17.133 Q 69.195 17.36 70.805 17.36 Q 72.255 17.36 72.815 17.182 A 1.315 1.315 0 0 0 72.905 17.15 A 1.002 1.002 0 0 0 73.168 17 Q 73.416 16.798 73.429 16.455 A 1.015 1.015 0 0 0 73.43 16.415 Q 73.43 15.925 72.905 15.68 A 1.706 1.706 0 0 0 72.579 15.573 Q 72.052 15.448 71.058 15.436 A 18.005 18.005 0 0 0 70.84 15.435 A 17.428 17.428 0 0 0 70.175 15.447 Q 69.222 15.483 68.799 15.634 A 1.125 1.125 0 0 0 68.688 15.68 A 1.11 1.11 0 0 0 68.434 15.845 A 0.727 0.727 0 0 0 68.18 16.415 Z M 133.98 18.9 L 131.46 18.41 Q 129.885 18.095 128.398 17.588 A 6.504 6.504 0 0 1 126.909 16.869 A 5.468 5.468 0 0 1 125.948 16.065 A 3.383 3.383 0 0 1 125.121 14.509 Q 124.994 13.991 124.986 13.382 A 6.27 6.27 0 0 1 124.985 13.3 A 4.233 4.233 0 0 1 125.45 11.3 Q 125.978 10.297 127.103 9.59 Q 129.199 8.273 133.167 8.26 A 24.199 24.199 0 0 1 133.245 8.26 A 20.133 20.133 0 0 1 135.429 8.373 A 14.903 14.903 0 0 1 137.393 8.715 Q 139.23 9.17 140.315 10.063 A 3.101 3.101 0 0 1 141.038 10.894 A 2.714 2.714 0 0 1 141.4 12.285 A 4.864 4.864 0 0 1 141.402 12.404 Q 141.402 12.932 141.284 13.382 A 2.812 2.812 0 0 1 140.63 14.595 A 2.625 2.625 0 0 1 138.716 15.468 A 3.348 3.348 0 0 1 138.6 15.47 Q 137.725 15.47 136.833 15.243 A 2865.361 2865.361 0 0 0 135.905 15.006 A 3559.406 3559.406 0 0 0 134.908 14.753 Q 133.907 14.498 132.628 14.458 A 14.88 14.88 0 0 0 132.545 14.455 A 7.4 7.4 0 0 0 132.219 14.438 Q 131.494 14.416 131.005 14.56 A 1.579 1.579 0 0 0 130.773 14.647 Q 130.41 14.819 130.41 15.12 A 0.449 0.449 0 0 0 130.605 15.49 Q 130.768 15.615 131.069 15.688 A 2.415 2.415 0 0 0 131.11 15.698 A 21.254 21.254 0 0 0 131.504 15.782 Q 132.16 15.916 133.21 16.1 L 135.695 16.555 A 25.69 25.69 0 0 1 137.027 16.815 Q 137.709 16.968 138.281 17.143 A 10.337 10.337 0 0 1 139.318 17.518 Q 140.665 18.095 141.26 19.11 A 3.777 3.777 0 0 1 141.634 20.021 Q 141.759 20.472 141.813 21.013 A 8.994 8.994 0 0 1 141.855 21.91 A 5.314 5.314 0 0 1 141.651 23.416 A 4.259 4.259 0 0 1 140.788 25.008 A 5.613 5.613 0 0 1 139.157 26.295 A 7.717 7.717 0 0 1 137.83 26.845 A 12.422 12.422 0 0 1 135.698 27.305 Q 134.658 27.44 133.49 27.44 A 21.621 21.621 0 0 1 130.752 27.274 A 17.556 17.556 0 0 1 129.028 26.968 Q 127.292 26.567 126.148 25.764 A 5.584 5.584 0 0 1 125.755 25.463 A 3.359 3.359 0 0 1 124.539 23.005 A 4.567 4.567 0 0 1 124.53 22.715 A 4.089 4.089 0 0 1 124.692 21.539 A 3.279 3.279 0 0 1 125.44 20.23 A 3.02 3.02 0 0 1 127.377 19.277 A 4.209 4.209 0 0 1 127.855 19.25 A 6.381 6.381 0 0 1 129.612 19.503 A 7.188 7.188 0 0 1 129.763 19.548 Q 130.725 19.845 131.81 20.125 A 8.859 8.859 0 0 0 133.385 20.378 A 10.64 10.64 0 0 0 134.155 20.405 A 16.087 16.087 0 0 0 134.64 20.398 Q 135.308 20.378 135.611 20.297 A 1.113 1.113 0 0 0 135.66 20.283 A 0.739 0.739 0 0 0 135.835 20.203 Q 136.045 20.069 136.045 19.81 Q 136.045 19.494 135.778 19.337 A 0.915 0.915 0 0 0 135.573 19.25 Q 135.138 19.121 134.153 18.933 A 48.004 48.004 0 0 0 133.98 18.9 Z M 34.09 17.675 L 34.195 17.675 L 34.195 17.15 A 1.754 1.754 0 0 0 34.097 16.551 A 1.511 1.511 0 0 0 33.6 15.873 A 2.003 2.003 0 0 0 32.663 15.468 Q 32.396 15.424 32.095 15.435 Q 31.22 15.435 30.608 15.54 Q 30.191 15.612 29.638 15.748 A 25.897 25.897 0 0 0 29.085 15.89 Q 27.73 16.229 26.671 15.976 A 3.531 3.531 0 0 1 26.18 15.82 A 2.731 2.731 0 0 1 24.689 14.38 A 3.961 3.961 0 0 1 24.5 13.895 A 4.909 4.909 0 0 1 24.373 13.312 Q 24.254 12.527 24.457 11.894 A 2.444 2.444 0 0 1 24.693 11.375 A 3.728 3.728 0 0 1 25.874 10.173 A 4.946 4.946 0 0 1 26.565 9.8 A 12.154 12.154 0 0 1 28.014 9.216 A 15.123 15.123 0 0 1 28.998 8.925 A 10.929 10.929 0 0 1 30.935 8.611 A 13.243 13.243 0 0 1 31.92 8.575 A 14.976 14.976 0 0 1 34.398 8.766 Q 35.703 8.985 36.731 9.457 A 6.309 6.309 0 0 1 38.658 10.798 Q 40.72 12.927 40.806 17.802 A 24.369 24.369 0 0 1 40.81 18.235 L 40.81 23.66 A 3.865 3.865 0 0 1 40.643 24.822 A 3.167 3.167 0 0 1 39.935 26.04 Q 39.06 26.985 37.52 26.985 A 4.738 4.738 0 0 1 36.565 26.895 Q 35.999 26.779 35.57 26.511 A 2.443 2.443 0 0 1 35.018 26.04 A 3.329 3.329 0 0 1 34.205 24.024 A 4.314 4.314 0 0 1 34.195 23.73 L 34.195 22.925 L 33.495 22.925 A 5.387 5.387 0 0 1 33.292 24.368 A 6.35 6.35 0 0 1 33.163 24.78 A 2.746 2.746 0 0 1 32.425 25.885 A 3.876 3.876 0 0 1 31.798 26.355 A 3.378 3.378 0 0 1 31.012 26.694 Q 30.202 26.938 28.999 26.978 A 14.569 14.569 0 0 1 28.525 26.985 A 7.702 7.702 0 0 1 26.881 26.82 Q 25.82 26.588 25.024 26.031 A 4.487 4.487 0 0 1 24.483 25.585 A 4.583 4.583 0 0 1 23.21 23.299 Q 23.033 22.563 23.03 21.693 A 8.758 8.758 0 0 1 23.03 21.665 A 5.938 5.938 0 0 1 23.186 20.258 A 3.656 3.656 0 0 1 24.71 18.008 Q 26.243 16.97 28.561 16.879 A 11.556 11.556 0 0 1 29.015 16.87 Q 30.555 16.87 31.815 17.08 A 13.348 13.348 0 0 1 33.138 17.367 A 10.45 10.45 0 0 1 34.09 17.675 Z M 28.875 19.32 A 1.26 1.26 0 0 0 28.914 19.643 A 0.806 0.806 0 0 0 29.313 20.16 A 1.209 1.209 0 0 0 29.585 20.264 Q 30.106 20.405 31.22 20.405 A 11.398 11.398 0 0 0 31.835 20.39 Q 32.39 20.36 32.751 20.27 A 1.793 1.793 0 0 0 33.075 20.16 A 0.962 0.962 0 0 0 33.379 19.945 Q 33.6 19.706 33.6 19.32 A 0.919 0.919 0 0 0 33.541 18.981 Q 33.424 18.684 33.075 18.533 A 1.912 1.912 0 0 0 32.74 18.428 Q 32.197 18.305 31.22 18.305 Q 29.896 18.305 29.409 18.49 A 0.912 0.912 0 0 0 29.313 18.533 A 0.764 0.764 0 0 0 28.898 19.08 A 1.177 1.177 0 0 0 28.875 19.32 Z M 147.21 20.195 L 147.21 14.035 L 145.915 14.21 A 2.155 2.155 0 0 1 145.63 14.229 Q 144.754 14.229 144.06 13.475 A 3.019 3.019 0 0 1 143.279 11.714 A 4.038 4.038 0 0 1 143.255 11.27 A 3.595 3.595 0 0 1 143.398 10.232 A 2.858 2.858 0 0 1 144.06 9.083 A 2.6 2.6 0 0 1 144.605 8.633 Q 145.08 8.346 145.625 8.346 A 2.192 2.192 0 0 1 145.915 8.365 L 147.21 8.54 L 147.175 6.16 Q 147.14 4.76 147.98 3.938 A 2.686 2.686 0 0 1 149.08 3.299 Q 149.504 3.167 150.016 3.13 A 5.732 5.732 0 0 1 150.43 3.115 A 5.057 5.057 0 0 1 151.408 3.204 Q 151.979 3.316 152.422 3.572 A 2.655 2.655 0 0 1 152.915 3.938 A 2.533 2.533 0 0 1 153.701 5.539 Q 153.725 5.74 153.725 5.956 A 4.09 4.09 0 0 1 153.72 6.16 L 153.65 8.54 L 155.505 8.295 A 5.984 5.984 0 0 1 155.97 8.244 Q 157.519 8.137 158.375 8.978 A 3.268 3.268 0 0 1 159.133 10.086 A 3.129 3.129 0 0 1 159.355 11.27 A 3.125 3.125 0 0 1 158.423 13.532 A 3.906 3.906 0 0 1 158.393 13.563 Q 157.503 14.452 155.882 14.31 A 5.853 5.853 0 0 1 155.61 14.28 L 153.65 14.035 L 153.65 19.25 A 1.223 1.223 0 0 0 153.936 20.038 A 1.551 1.551 0 0 0 153.965 20.073 A 0.862 0.862 0 0 0 154.139 20.23 Q 154.399 20.404 154.735 20.3 Q 155.26 20.16 155.838 19.705 A 2.058 2.058 0 0 1 156.677 19.317 A 2.981 2.981 0 0 1 157.325 19.25 Q 158.69 19.25 159.425 20.23 A 3.628 3.628 0 0 1 160.095 21.833 A 4.901 4.901 0 0 1 160.16 22.645 A 3.283 3.283 0 0 1 159.74 24.235 A 4.401 4.401 0 0 1 159.373 24.798 A 4.904 4.904 0 0 1 158.209 25.882 A 6.657 6.657 0 0 1 157.15 26.46 Q 155.811 27.048 153.983 27.087 A 12.288 12.288 0 0 1 153.72 27.09 A 7.036 7.036 0 0 1 151.547 26.763 A 6.316 6.316 0 0 1 150.378 26.25 Q 148.89 25.41 148.05 23.853 A 6.891 6.891 0 0 1 147.328 21.694 A 9.142 9.142 0 0 1 147.21 20.195 Z M 48.977 26.788 A 9.073 9.073 0 0 1 46.795 25.953 Q 44.695 24.815 43.505 22.715 A 9.046 9.046 0 0 1 42.456 19.642 A 11.896 11.896 0 0 1 42.315 17.78 A 11.403 11.403 0 0 1 42.577 15.284 A 8.829 8.829 0 0 1 43.505 12.845 Q 44.695 10.745 46.813 9.59 A 9.421 9.421 0 0 1 50.111 8.537 A 11.989 11.989 0 0 1 51.695 8.435 Q 53.713 8.435 55.291 8.828 A 10.611 10.611 0 0 1 55.528 8.89 Q 57.19 9.345 58.153 10.255 A 2.986 2.986 0 0 1 59.114 12.424 A 3.798 3.798 0 0 1 59.115 12.53 A 5.188 5.188 0 0 1 59.018 13.565 Q 58.83 14.49 58.275 15.103 Q 57.454 16.009 55.931 16.03 A 5.265 5.265 0 0 1 55.86 16.03 Q 54.81 16.03 53.778 15.715 A 6.3 6.3 0 0 0 52.922 15.523 Q 52.141 15.4 51.135 15.4 A 7.006 7.006 0 0 0 50.16 15.464 Q 49.45 15.564 48.895 15.82 A 1.524 1.524 0 0 0 48.281 16.31 Q 48.075 16.596 48.013 16.992 A 2.353 2.353 0 0 0 47.985 17.36 A 2.284 2.284 0 0 0 48.079 18.034 A 1.662 1.662 0 0 0 48.895 19.023 A 3.827 3.827 0 0 0 49.976 19.418 Q 50.443 19.516 50.98 19.528 A 6.78 6.78 0 0 0 51.135 19.53 A 9.313 9.313 0 0 0 51.9 19.501 Q 52.272 19.47 52.591 19.407 A 4.458 4.458 0 0 0 52.955 19.32 Q 53.69 19.11 54.355 18.9 A 4.417 4.417 0 0 1 55.159 18.73 A 5.874 5.874 0 0 1 55.86 18.69 A 4.891 4.891 0 0 1 56.862 18.786 Q 57.466 18.912 57.92 19.206 A 2.556 2.556 0 0 1 58.503 19.723 A 3.638 3.638 0 0 1 59.268 21.371 A 5.114 5.114 0 0 1 59.36 22.365 A 3.386 3.386 0 0 1 58.498 24.629 A 4.443 4.443 0 0 1 58.345 24.798 A 5.845 5.845 0 0 1 57.059 25.803 Q 56.401 26.191 55.58 26.478 A 10.721 10.721 0 0 1 53.357 26.987 A 14.026 14.026 0 0 1 51.625 27.09 A 11.149 11.149 0 0 1 48.977 26.788 Z M 111.126 26.714 A 7.985 7.985 0 0 1 107.433 24.623 A 7.924 7.924 0 0 1 105.402 21.025 Q 105.063 19.781 105.01 18.301 A 15.562 15.562 0 0 1 105 17.745 Q 105 15.015 106.12 12.95 Q 107.24 10.885 109.253 9.713 A 8.557 8.557 0 0 1 112.342 8.655 A 11.07 11.07 0 0 1 113.96 8.54 A 12.83 12.83 0 0 1 116.075 8.705 Q 117.301 8.91 118.306 9.37 A 7.261 7.261 0 0 1 118.965 9.713 Q 120.96 10.885 121.958 12.95 A 9.842 9.842 0 0 1 122.803 15.714 A 13.033 13.033 0 0 1 122.955 17.745 Q 122.955 21.024 121.746 23.207 A 7.411 7.411 0 0 1 120.733 24.623 A 6.94 6.94 0 0 1 117.714 26.521 Q 116.093 27.055 113.96 27.055 A 11.147 11.147 0 0 1 111.126 26.714 Z M 109.165 17.15 A 1.663 1.663 0 0 0 109.299 17.833 Q 109.547 18.389 110.25 18.673 Q 111.335 19.11 113.96 19.11 A 25.05 25.05 0 0 0 115.176 19.083 Q 116.34 19.026 117.088 18.851 A 4.003 4.003 0 0 0 117.67 18.673 A 2.079 2.079 0 0 0 118.213 18.361 Q 118.755 17.917 118.755 17.15 A 1.55 1.55 0 0 0 118.61 16.467 Q 118.359 15.947 117.67 15.68 Q 116.847 15.361 115.136 15.285 A 26.318 26.318 0 0 0 113.96 15.26 Q 111.941 15.26 110.833 15.509 A 4.127 4.127 0 0 0 110.25 15.68 A 2.11 2.11 0 0 0 109.726 15.966 Q 109.174 16.389 109.165 17.127 A 2.013 2.013 0 0 0 109.165 17.15 Z" vector-effect="non-scaling-stroke"/></g></svg>